<?xml version="1.0" standalone="no"?>
<!DOCTYPE svg PUBLIC "-//W3C//DTD SVG 20010904//EN"
 "http://www.w3.org/TR/2001/REC-SVG-20010904/DTD/svg10.dtd">
<svg version="1.0" xmlns="http://www.w3.org/2000/svg"
 width="700.000000pt" height="669.000000pt" viewBox="0 0 700.000000 669.000000"
 preserveAspectRatio="xMidYMid meet">

<g transform="translate(0.000000,669.000000) scale(0.100000,-0.100000)"
fill="#000000" stroke="none">
<path d="M3898 5518 c-24 -8 -36 -23 -89 -108 -8 -14 -24 -47 -34 -73 -16 -42
-21 -48 -39 -42 -46 15 -88 17 -137 5 -37 -9 -54 -9 -62 -1 -15 15 -104 13
-152 -4 -31 -11 -48 -12 -73 -4 -18 6 -50 8 -70 5 -77 -13 -74 -14 -91 39 -21
64 -84 159 -114 172 -39 18 -75 4 -119 -47 -69 -80 -118 -228 -118 -358 0 -47
-4 -57 -34 -87 -63 -63 -101 -234 -76 -340 13 -52 12 -55 -12 -87 -64 -85 -91
-234 -62 -355 10 -45 14 -77 8 -81 -15 -11 -35 -64 -43 -114 -10 -61 1 -131
30 -193 20 -42 21 -51 10 -79 -38 -95 -52 -240 -31 -317 9 -30 7 -45 -11 -85
-26 -57 -38 -223 -21 -273 9 -26 7 -40 -17 -93 -16 -35 -32 -82 -36 -106 -6
-37 -12 -45 -43 -58 -59 -24 -115 -92 -151 -182 -27 -66 -38 -82 -63 -93 -45
-19 -119 -99 -156 -170 -55 -105 -67 -146 -66 -239 1 -71 5 -94 27 -139 15
-30 27 -58 27 -63 0 -4 -16 -40 -35 -80 -36 -74 -69 -231 -59 -280 25 -119 62
-201 118 -261 19 -20 38 -37 41 -37 3 0 22 -11 43 -24 31 -19 41 -34 59 -93
33 -101 55 -127 188 -218 48 -34 122 -50 214 -48 80 2 86 1 122 -28 82 -65
222 -108 349 -109 36 0 106 9 155 20 l90 19 90 -29 c160 -53 307 -62 408 -24
68 26 169 74 198 95 23 16 37 18 82 13 74 -9 217 12 298 44 95 36 207 147 253
249 13 31 28 45 50 53 51 17 123 87 162 157 71 126 84 321 29 437 -15 31 -15
35 4 67 36 61 49 158 35 246 -7 43 -18 94 -25 113 -36 100 -148 244 -219 280
-28 14 -38 27 -47 62 -15 57 -102 189 -144 220 -19 14 -50 31 -69 38 -19 7
-36 14 -38 15 -1 1 -7 28 -13 60 -6 33 -22 81 -35 108 -24 47 -25 50 -10 102
18 60 20 113 7 147 -26 69 -35 135 -36 268 -1 123 -5 155 -24 210 l-23 65 20
50 c51 126 52 168 6 272 -25 57 -25 57 -9 117 15 52 15 71 5 158 -11 85 -17
107 -52 163 l-39 65 12 60 c21 109 -21 281 -84 341 -22 21 -25 34 -29 109 -9
163 -96 348 -178 378 -15 6 -36 5 -52 0z m57 -188 c33 -64 47 -127 49 -219 3
-101 17 -147 48 -157 26 -8 47 -43 64 -106 19 -74 17 -127 -6 -166 -11 -18
-20 -40 -20 -50 0 -9 21 -48 46 -85 32 -47 51 -87 60 -130 19 -87 17 -109 -11
-179 -23 -55 -23 -63 -10 -87 70 -126 74 -168 22 -271 -21 -39 -37 -79 -37
-88 0 -10 11 -34 25 -53 38 -57 51 -151 35 -252 -12 -82 -12 -85 14 -150 33
-83 35 -174 6 -242 -11 -26 -20 -50 -20 -54 0 -4 16 -28 35 -53 24 -30 37 -60
41 -91 l7 -47 -39 0 c-34 0 -48 8 -95 53 -31 28 -77 63 -103 76 -81 40 -230
39 -327 -3 -9 -4 -25 2 -40 15 -78 68 -129 89 -221 89 -83 0 -208 -49 -275
-108 -23 -19 -23 -19 -70 3 -64 30 -153 49 -195 41 -52 -10 -108 -43 -166 -99
-46 -46 -56 -51 -90 -48 -20 1 -41 6 -46 11 -11 11 10 71 33 96 40 44 42 58
16 125 -37 93 -34 116 26 265 10 26 10 45 -1 102 -17 95 -7 180 33 259 l30 62
-35 78 c-20 43 -39 88 -43 100 -8 30 10 93 41 138 29 43 29 77 0 153 -14 37
-15 57 -6 124 8 70 15 89 55 148 49 74 55 107 29 159 -13 25 -15 47 -9 94 8
73 30 140 47 146 7 2 25 17 40 32 27 26 28 32 28 121 0 64 6 112 20 155 22 73
47 123 59 123 13 0 42 -67 63 -144 10 -38 26 -78 35 -89 24 -26 74 -17 120 23
37 33 43 33 105 6 35 -15 38 -14 83 9 56 30 76 31 100 5 11 -12 31 -20 50 -20
18 0 44 9 58 20 36 28 59 25 103 -15 62 -55 126 -44 139 23 16 77 63 194 76
186 5 -3 16 -18 24 -34z m-414 -2382 c19 -6 57 -33 86 -60 60 -56 94 -61 158
-26 31 17 57 22 120 22 70 1 86 -3 127 -26 25 -15 62 -50 82 -77 42 -57 81
-75 127 -59 45 16 182 4 211 -18 41 -30 88 -102 124 -188 32 -76 39 -85 79
-106 88 -45 195 -204 195 -290 0 -10 5 -31 12 -45 14 -30 1 -81 -43 -170 -35
-71 -35 -73 -9 -123 49 -94 49 -248 -1 -347 -28 -56 -93 -115 -126 -115 -28 0
-73 -27 -73 -45 0 -27 -69 -139 -115 -187 -81 -82 -172 -111 -341 -106 -106 3
-112 2 -150 -24 -70 -48 -205 -101 -268 -106 -81 -6 -205 22 -312 70 -41 18
-42 18 -145 -7 -57 -14 -125 -25 -150 -25 -115 0 -243 44 -300 103 -43 43 -36
42 -179 36 -95 -3 -121 5 -205 69 -53 40 -78 81 -96 159 -19 79 -28 91 -81
109 -26 8 -60 28 -76 43 -97 98 -109 290 -26 431 40 68 44 120 15 178 -33 67
-43 128 -30 191 22 108 103 229 173 256 51 21 76 43 76 67 0 37 51 143 82 170
31 26 95 48 142 48 14 0 46 -7 72 -16 57 -19 91 -8 119 39 29 49 100 114 131
120 34 6 113 -16 177 -49 65 -35 101 -27 164 34 70 68 175 97 254 70z"/>
<path d="M3752 2211 c-8 -4 -15 -37 -18 -82 -10 -134 -37 -222 -94 -301 -29
-40 -82 -88 -98 -88 -20 0 -92 67 -130 120 -36 51 -49 80 -81 181 -6 19 -11
63 -11 96 0 49 -4 62 -17 68 -26 9 -53 -29 -53 -76 0 -40 16 -130 29 -164 18
-47 65 -136 82 -157 81 -96 139 -138 190 -138 43 0 145 98 187 179 41 79 81
275 67 330 -9 36 -29 48 -53 32z"/>
</g>
</svg>
